<?xml version="1.0" encoding="UTF-8"?>
<svg xmlns="http://www.w3.org/2000/svg" width="1024" height="576" viewBox="0 0 1024 576">
  
    <defs>
      <radialGradient id="bg" cx="50%" cy="50%" r="70%">
        <stop offset="0%" stop-color="#2d0a4a"/>
        <stop offset="100%" stop-color="#0d0022"/>
      </radialGradient>
    </defs>
    <rect width="1024" height="576" fill="url(#bg)"/>
    <circle cx="385.8" cy="132.0" r="2.2" fill="white" opacity="0.61"/><circle cx="939.7" cy="223.5" r="1.3" fill="white" opacity="0.95"/><circle cx="770.1" cy="139.7" r="0.9" fill="white" opacity="0.94"/><circle cx="488.2" cy="108.2" r="1.1" fill="white" opacity="0.63"/><circle cx="684.5" cy="435.2" r="1.7" fill="white" opacity="0.82"/><circle cx="421.3" cy="37.1" r="1.1" fill="white" opacity="0.83"/><circle cx="389.5" cy="572.2" r="2.9" fill="white" opacity="0.59"/><circle cx="250.7" cy="18.3" r="2.3" fill="white" opacity="0.92"/><circle cx="420.2" cy="6.0" r="1.0" fill="white" opacity="0.84"/><circle cx="371.4" cy="94.5" r="2.8" fill="white" opacity="0.59"/><circle cx="132.4" cy="133.4" r="0.7" fill="white" opacity="0.62"/><circle cx="640.3" cy="313.4" r="0.8" fill="white" opacity="0.62"/><circle cx="920.3" cy="176.2" r="2.7" fill="white" opacity="0.40"/><circle cx="553.6" cy="300.7" r="0.7" fill="white" opacity="0.73"/><circle cx="794.7" cy="156.9" r="1.5" fill="white" opacity="0.71"/><circle cx="1.2" cy="166.4" r="1.6" fill="white" opacity="0.72"/><circle cx="801.1" cy="21.9" r="0.9" fill="white" opacity="0.66"/><circle cx="596.6" cy="437.8" r="0.9" fill="white" opacity="0.93"/><circle cx="749.4" cy="97.9" r="2.6" fill="white" opacity="0.50"/><circle cx="414.6" cy="445.3" r="1.3" fill="white" opacity="1.00"/><circle cx="640.0" cy="574.7" r="1.4" fill="white" opacity="0.56"/><circle cx="569.9" cy="344.4" r="1.5" fill="white" opacity="0.68"/><circle cx="618.2" cy="17.5" r="1.9" fill="white" opacity="0.82"/><circle cx="82.5" cy="436.7" r="1.3" fill="white" opacity="0.56"/><circle cx="479.5" cy="394.1" r="1.6" fill="white" opacity="0.91"/><circle cx="536.2" cy="96.1" r="2.7" fill="white" opacity="0.46"/><circle cx="776.1" cy="186.6" r="2.7" fill="white" opacity="0.83"/><circle cx="48.2" cy="330.1" r="2.5" fill="white" opacity="0.57"/><circle cx="402.8" cy="355.3" r="0.8" fill="white" opacity="0.73"/><circle cx="103.2" cy="185.4" r="1.8" fill="white" opacity="0.99"/><circle cx="903.0" cy="113.9" r="1.7" fill="white" opacity="0.63"/><circle cx="675.7" cy="245.7" r="0.8" fill="white" opacity="0.55"/><circle cx="86.5" cy="373.4" r="3.0" fill="white" opacity="0.65"/><circle cx="23.6" cy="549.3" r="1.4" fill="white" opacity="0.95"/><circle cx="559.7" cy="453.8" r="1.3" fill="white" opacity="0.45"/><circle cx="178.2" cy="414.6" r="2.1" fill="white" opacity="0.40"/><circle cx="399.8" cy="159.5" r="1.8" fill="white" opacity="0.65"/><circle cx="722.8" cy="173.9" r="1.2" fill="white" opacity="0.35"/><circle cx="788.3" cy="306.8" r="2.8" fill="white" opacity="0.53"/><circle cx="313.9" cy="206.7" r="2.2" fill="white" opacity="0.94"/><circle cx="909.2" cy="552.1" r="0.9" fill="white" opacity="0.64"/><circle cx="827.7" cy="153.9" r="1.6" fill="white" opacity="0.45"/><circle cx="591.4" cy="278.9" r="0.9" fill="white" opacity="0.96"/><circle cx="817.8" cy="38.8" r="2.6" fill="white" opacity="1.00"/><circle cx="454.1" cy="241.9" r="1.2" fill="white" opacity="0.35"/><circle cx="813.7" cy="417.1" r="0.6" fill="white" opacity="0.75"/><circle cx="581.1" cy="358.2" r="1.7" fill="white" opacity="0.86"/><circle cx="1002.2" cy="402.4" r="2.4" fill="white" opacity="0.75"/><circle cx="794.9" cy="559.2" r="1.7" fill="white" opacity="0.57"/><circle cx="509.6" cy="479.8" r="1.9" fill="white" opacity="0.33"/><circle cx="482.3" cy="94.3" r="31.6" fill="#a855f7" opacity="0.064"/><circle cx="332.1" cy="315.7" r="85.4" fill="#a855f7" opacity="0.197"/><circle cx="20.9" cy="470.2" r="71.1" fill="#a855f7" opacity="0.201"/><circle cx="697.1" cy="203.3" r="111.8" fill="#a855f7" opacity="0.082"/><circle cx="732.8" cy="506.8" r="88.5" fill="#a855f7" opacity="0.105"/><circle cx="25.7" cy="384.0" r="52.9" fill="#a855f7" opacity="0.093"/><circle cx="294.5" cy="212.9" r="123.9" fill="#a855f7" opacity="0.078"/><circle cx="614.7" cy="549.6" r="93.3" fill="#a855f7" opacity="0.048"/>
    <circle cx="512" cy="288" r="200" fill="none" stroke="#a855f7" stroke-width="2" opacity="0.4" stroke-dasharray="12 8"/>
    <circle cx="512" cy="288" r="150" fill="none" stroke="#7c3aed" stroke-width="1.5" opacity="0.3" stroke-dasharray="8 6"/>
    <circle cx="512" cy="288" r="260" fill="#a855f7" opacity="0.05"/>
  <text x="1000" y="235" font-size="9" fill="#fde68a" opacity="1.00" text-anchor="middle">✦</text><text x="557" y="107" font-size="11" fill="#fde68a" opacity="0.92" text-anchor="middle">✦</text><text x="242" y="322" font-size="14" fill="#fde68a" opacity="0.94" text-anchor="middle">✦</text><text x="580" y="304" font-size="11" fill="#fde68a" opacity="0.27" text-anchor="middle">✦</text><text x="807" y="314" font-size="5" fill="#fde68a" opacity="0.53" text-anchor="middle">✦</text><text x="197" y="322" font-size="13" fill="#fde68a" opacity="0.90" text-anchor="middle">✦</text><text x="613" y="104" font-size="7" fill="#fde68a" opacity="0.53" text-anchor="middle">✦</text><text x="527" y="294" font-size="13" fill="#fde68a" opacity="0.66" text-anchor="middle">✦</text><text x="41" y="350" font-size="10" fill="#fde68a" opacity="0.72" text-anchor="middle">✦</text><text x="658" y="28" font-size="8" fill="#fde68a" opacity="0.53" text-anchor="middle">✦</text><text x="833" y="61" font-size="10" fill="#fde68a" opacity="0.69" text-anchor="middle">✦</text><text x="564" y="110" font-size="11" fill="#fde68a" opacity="0.31" text-anchor="middle">✦</text><text x="540" y="398" font-size="14" fill="#fde68a" opacity="0.44" text-anchor="middle">✦</text><text x="601" y="433" font-size="9" fill="#fde68a" opacity="0.63" text-anchor="middle">✦</text><text x="548" y="399" font-size="6" fill="#fde68a" opacity="0.92" text-anchor="middle">✦</text><text x="545" y="544" font-size="7" fill="#fde68a" opacity="0.73" text-anchor="middle">✦</text>
  
  
    <defs>
      <linearGradient id="titleFade" x1="0%" y1="0%" x2="0%" y2="100%">
        <stop offset="0%" stop-color="#000000" stop-opacity="0"/>
        <stop offset="100%" stop-color="#000000" stop-opacity="0.65"/>
      </linearGradient>
    </defs>
    <rect y="430" width="1024" height="146" fill="url(#titleFade)"/>
  
</svg>