<?xml version="1.0" encoding="UTF-8"?>
<svg xmlns="http://www.w3.org/2000/svg" width="1024" height="576" viewBox="0 0 1024 576">
  
    <defs>
      <linearGradient id="bg" x1="0%" y1="0%" x2="100%" y2="100%">
        <stop offset="0%" stop-color="#0a1a2a"/>
        <stop offset="100%" stop-color="#102030"/>
      </linearGradient>
    </defs>
    <rect width="1024" height="576" fill="url(#bg)"/>
    <path d="M 0 149.4930820794527 L 0 162.5 L 16 159.0 L 32 154.7 L 48 149.9 L 64 145.1 L 80 140.7 L 96 137.0 L 112 134.3 L 128 133.0 L 144 133.0 L 160 134.4 L 176 137.1 L 192 140.8 L 208 145.2 L 224 150.0 L 240 154.8 L 256 159.1 L 272 162.6 L 288 165.0 L 304 166.1 L 320 165.8 L 336 164.2 L 352 161.3 L 368 157.4 L 384 152.9 L 400 148.0 L 416 143.3 L 432 139.2 L 448 135.8 L 464 133.7 L 480 132.8 L 496 133.4 L 512 135.3 L 528 138.4 L 544 142.4 L 560 147.0 L 576 151.9 L 592 156.5 L 608 160.5 L 624 163.7 L 640 165.6 L 656 166.2 L 672 165.4 L 688 163.2 L 704 159.9 L 720 155.7 L 736 151.0 L 752 146.2 L 768 141.7 L 784 137.8 L 800 134.9 L 816 133.2 L 832 132.9 L 848 133.9 L 864 136.3 L 880 139.8 L 896 144.1 L 912 148.9 L 928 153.7 L 944 158.1 L 960 161.9 L 976 164.6 L 992 166.0 L 1008 166.0 L 1024 164.7" stroke="#3b82f6" stroke-width="2" fill="none" opacity="0.15"/><path d="M 0 295.12986751625544 L 0 299.0 L 16 293.1 L 32 287.4 L 48 282.2 L 64 277.7 L 80 274.3 L 96 272.2 L 112 271.4 L 128 272.1 L 144 274.2 L 160 277.5 L 176 281.9 L 192 287.1 L 208 292.8 L 224 298.6 L 240 304.2 L 256 309.3 L 272 313.5 L 288 316.6 L 304 318.4 L 320 318.8 L 336 317.8 L 352 315.3 L 368 311.7 L 384 307.1 L 400 301.7 L 416 296.0 L 432 290.1 L 448 284.6 L 464 279.8 L 480 275.8 L 496 273.0 L 512 271.6 L 528 271.6 L 544 273.0 L 560 275.8 L 576 279.7 L 592 284.5 L 608 290.0 L 624 295.8 L 640 301.6 L 656 307.0 L 672 311.6 L 688 315.3 L 704 317.7 L 720 318.8 L 736 318.4 L 752 316.7 L 768 313.6 L 784 309.4 L 800 304.4 L 816 298.7 L 832 292.9 L 848 287.2 L 864 282.0 L 880 277.6 L 896 274.2 L 912 272.1 L 928 271.4 L 944 272.2 L 960 274.3 L 976 277.7 L 992 282.1 L 1008 287.3 L 1024 293.0" stroke="#3b82f6" stroke-width="2" fill="none" opacity="0.15"/><path d="M 0 382.20318805943316 L 0 369.0 L 16 373.1 L 32 377.2 L 48 381.5 L 64 385.8 L 80 390.0 L 96 394.1 L 112 398.1 L 128 401.8 L 144 405.2 L 160 408.3 L 176 411.0 L 192 413.3 L 208 415.2 L 224 416.5 L 240 417.4 L 256 417.8 L 272 417.6 L 288 417.0 L 304 415.8 L 320 414.2 L 336 412.1 L 352 409.5 L 368 406.6 L 384 403.3 L 400 399.7 L 416 395.9 L 432 391.9 L 448 387.7 L 464 383.4 L 480 379.1 L 496 374.9 L 512 370.8 L 528 366.8 L 544 363.1 L 560 359.6 L 576 356.5 L 592 353.7 L 608 351.4 L 624 349.5 L 640 348.0 L 656 347.1 L 672 346.6 L 688 346.7 L 704 347.3 L 720 348.4 L 736 350.0 L 752 352.0 L 768 354.5 L 784 357.4 L 800 360.7 L 816 364.2 L 832 368.0 L 848 372.1 L 864 376.2 L 880 380.5 L 896 384.8 L 912 389.0 L 928 393.1 L 944 397.1 L 960 400.9 L 976 404.4 L 992 407.6 L 1008 410.4 L 1024 412.8" stroke="#3b82f6" stroke-width="2" fill="none" opacity="0.15"/><path d="M 0 225.15558288087036 L 0 233.1 L 16 229.7 L 32 226.4 L 48 223.0 L 64 219.6 L 80 216.3 L 96 213.2 L 112 210.2 L 128 207.4 L 144 204.8 L 160 202.5 L 176 200.6 L 192 198.9 L 208 197.6 L 224 196.7 L 240 196.2 L 256 196.1 L 272 196.3 L 288 197.0 L 304 198.0 L 320 199.4 L 336 201.2 L 352 203.3 L 368 205.6 L 384 208.3 L 400 211.2 L 416 214.2 L 432 217.4 L 448 220.7 L 464 224.1 L 480 227.5 L 496 230.9 L 512 234.2 L 528 237.3 L 544 240.3 L 560 243.1 L 576 245.6 L 592 247.9 L 608 249.9 L 624 251.5 L 640 252.7 L 656 253.6 L 672 254.1 L 688 254.2 L 704 254.0 L 720 253.3 L 736 252.2 L 752 250.8 L 768 249.0 L 784 246.9 L 800 244.5 L 816 241.9 L 832 239.0 L 848 235.9 L 864 232.7 L 880 229.4 L 896 226.0 L 912 222.6 L 928 219.3 L 944 216.0 L 960 212.8 L 976 209.8 L 992 207.1 L 1008 204.5 L 1024 202.3" stroke="#3b82f6" stroke-width="2" fill="none" opacity="0.15"/><circle cx="542.1" cy="441.3" r="146.0" fill="#3b82f6" opacity="0.111"/><circle cx="771.5" cy="409.6" r="136.4" fill="#3b82f6" opacity="0.193"/><circle cx="293.3" cy="532.7" r="71.8" fill="#3b82f6" opacity="0.181"/><circle cx="904.2" cy="43.6" r="117.3" fill="#3b82f6" opacity="0.097"/><circle cx="721.9" cy="9.3" r="84.2" fill="#3b82f6" opacity="0.181"/><circle cx="52.2" cy="503.5" r="137.8" fill="#3b82f6" opacity="0.169"/><circle cx="914.9" cy="67.4" r="84.0" fill="#3b82f6" opacity="0.111"/><circle cx="1009.4" cy="312.5" r="41.5" fill="#3b82f6" opacity="0.043"/><text x="569" y="232" font-size="7" fill="#10b981" opacity="0.87" text-anchor="middle">✦</text><text x="869" y="63" font-size="10" fill="#10b981" opacity="0.84" text-anchor="middle">✦</text><text x="87" y="107" font-size="14" fill="#10b981" opacity="0.64" text-anchor="middle">✦</text><text x="399" y="321" font-size="10" fill="#10b981" opacity="0.88" text-anchor="middle">✦</text><text x="162" y="141" font-size="9" fill="#10b981" opacity="0.88" text-anchor="middle">✦</text><text x="535" y="436" font-size="12" fill="#10b981" opacity="0.63" text-anchor="middle">✦</text><text x="16" y="307" font-size="7" fill="#10b981" opacity="0.65" text-anchor="middle">✦</text><text x="688" y="227" font-size="14" fill="#10b981" opacity="0.26" text-anchor="middle">✦</text>
  
  
    <defs>
      <linearGradient id="titleFade" x1="0%" y1="0%" x2="0%" y2="100%">
        <stop offset="0%" stop-color="#000000" stop-opacity="0"/>
        <stop offset="100%" stop-color="#000000" stop-opacity="0.65"/>
      </linearGradient>
    </defs>
    <rect y="430" width="1024" height="146" fill="url(#titleFade)"/>
  
</svg>