<?xml version="1.0" encoding="UTF-8"?>
<svg xmlns="http://www.w3.org/2000/svg" width="1024" height="576" viewBox="0 0 1024 576">
  
    <defs>
      <radialGradient id="bg" cx="50%" cy="50%" r="70%">
        <stop offset="0%" stop-color="#0d1b4b"/>
        <stop offset="100%" stop-color="#020818"/>
      </radialGradient>
      <radialGradient id="nebula" cx="30%" cy="60%" r="50%">
        <stop offset="0%" stop-color="#7c3aed" stop-opacity="0.15"/>
        <stop offset="100%" stop-color="#020818" stop-opacity="0"/>
      </radialGradient>
    </defs>
    <rect width="1024" height="576" fill="url(#bg)"/>
    <rect width="1024" height="576" fill="url(#nebula)"/>
    <circle cx="502.8" cy="453.0" r="1.0" fill="white" opacity="0.81"/><circle cx="791.8" cy="396.1" r="1.0" fill="white" opacity="0.41"/><circle cx="945.8" cy="136.8" r="1.6" fill="white" opacity="0.99"/><circle cx="178.0" cy="487.1" r="0.8" fill="white" opacity="0.42"/><circle cx="555.7" cy="294.5" r="2.7" fill="white" opacity="1.00"/><circle cx="648.5" cy="88.8" r="1.9" fill="white" opacity="0.73"/><circle cx="277.5" cy="217.6" r="0.8" fill="white" opacity="0.62"/><circle cx="829.7" cy="246.9" r="2.8" fill="white" opacity="0.76"/><circle cx="193.2" cy="211.4" r="2.7" fill="white" opacity="0.64"/><circle cx="57.5" cy="411.9" r="1.8" fill="white" opacity="0.51"/><circle cx="571.2" cy="57.4" r="1.7" fill="white" opacity="0.61"/><circle cx="611.8" cy="374.9" r="1.0" fill="white" opacity="0.58"/><circle cx="677.1" cy="103.1" r="1.4" fill="white" opacity="0.81"/><circle cx="542.0" cy="223.6" r="1.1" fill="white" opacity="0.89"/><circle cx="463.2" cy="372.6" r="2.8" fill="white" opacity="0.78"/><circle cx="637.8" cy="46.6" r="2.8" fill="white" opacity="0.79"/><circle cx="18.5" cy="0.3" r="2.8" fill="white" opacity="0.76"/><circle cx="966.3" cy="537.6" r="2.7" fill="white" opacity="0.64"/><circle cx="875.0" cy="445.1" r="2.8" fill="white" opacity="0.93"/><circle cx="290.5" cy="467.4" r="1.4" fill="white" opacity="0.64"/><circle cx="977.4" cy="388.6" r="0.7" fill="white" opacity="0.83"/><circle cx="415.4" cy="240.1" r="1.0" fill="white" opacity="0.39"/><circle cx="725.1" cy="173.4" r="1.5" fill="white" opacity="0.88"/><circle cx="101.6" cy="13.1" r="1.7" fill="white" opacity="0.58"/><circle cx="630.5" cy="228.8" r="1.1" fill="white" opacity="0.37"/><circle cx="51.7" cy="445.2" r="2.0" fill="white" opacity="0.57"/><circle cx="832.8" cy="397.3" r="0.6" fill="white" opacity="0.54"/><circle cx="535.9" cy="313.1" r="0.8" fill="white" opacity="0.87"/><circle cx="420.0" cy="160.5" r="1.5" fill="white" opacity="0.57"/><circle cx="874.3" cy="211.1" r="2.2" fill="white" opacity="0.76"/><circle cx="654.8" cy="341.6" r="1.9" fill="white" opacity="0.65"/><circle cx="774.9" cy="239.3" r="1.6" fill="white" opacity="0.93"/><circle cx="840.7" cy="522.8" r="0.7" fill="white" opacity="0.99"/><circle cx="455.4" cy="320.0" r="1.7" fill="white" opacity="0.44"/><circle cx="140.3" cy="244.1" r="3.0" fill="white" opacity="0.70"/><circle cx="573.4" cy="261.4" r="0.7" fill="white" opacity="0.82"/><circle cx="224.7" cy="525.4" r="3.0" fill="white" opacity="0.37"/><circle cx="940.3" cy="146.1" r="2.1" fill="white" opacity="0.40"/><circle cx="563.9" cy="527.9" r="0.9" fill="white" opacity="0.39"/><circle cx="67.2" cy="467.2" r="2.1" fill="white" opacity="0.54"/><circle cx="692.8" cy="301.3" r="0.6" fill="white" opacity="0.80"/><circle cx="663.1" cy="284.0" r="3.0" fill="white" opacity="0.74"/><circle cx="237.0" cy="396.9" r="2.4" fill="white" opacity="0.38"/><circle cx="604.8" cy="310.6" r="2.6" fill="white" opacity="0.79"/><circle cx="795.0" cy="78.6" r="2.5" fill="white" opacity="0.80"/><circle cx="99.0" cy="567.9" r="1.9" fill="white" opacity="0.86"/><circle cx="460.1" cy="464.3" r="2.6" fill="white" opacity="0.92"/><circle cx="460.1" cy="87.5" r="3.0" fill="white" opacity="0.92"/><circle cx="438.3" cy="504.4" r="2.9" fill="white" opacity="0.97"/><circle cx="648.3" cy="396.3" r="0.9" fill="white" opacity="0.94"/><circle cx="210.6" cy="196.0" r="0.8" fill="white" opacity="0.49"/><circle cx="783.7" cy="108.1" r="0.9" fill="white" opacity="0.37"/><circle cx="694.7" cy="88.8" r="1.1" fill="white" opacity="0.50"/><circle cx="348.1" cy="207.9" r="1.7" fill="white" opacity="0.55"/><circle cx="47.0" cy="539.3" r="0.8" fill="white" opacity="0.78"/><circle cx="291.3" cy="444.3" r="1.9" fill="white" opacity="0.79"/><circle cx="537.0" cy="137.0" r="0.7" fill="white" opacity="0.76"/><circle cx="848.7" cy="77.2" r="2.0" fill="white" opacity="0.84"/><circle cx="892.8" cy="214.5" r="2.2" fill="white" opacity="0.38"/><circle cx="191.6" cy="102.3" r="2.6" fill="white" opacity="0.55"/><circle cx="743.3" cy="465.4" r="2.6" fill="white" opacity="0.39"/><circle cx="53.2" cy="38.9" r="0.7" fill="white" opacity="0.34"/><circle cx="772.3" cy="70.8" r="1.1" fill="white" opacity="0.48"/><circle cx="922.4" cy="226.3" r="1.5" fill="white" opacity="0.99"/><circle cx="632.4" cy="301.2" r="0.5" fill="white" opacity="0.31"/><circle cx="117.9" cy="411.7" r="1.7" fill="white" opacity="0.63"/><circle cx="763.0" cy="530.7" r="2.9" fill="white" opacity="0.64"/><circle cx="934.3" cy="390.5" r="2.4" fill="white" opacity="0.95"/><circle cx="944.4" cy="334.9" r="2.1" fill="white" opacity="0.90"/><circle cx="92.0" cy="394.4" r="1.8" fill="white" opacity="0.77"/><circle cx="707.5" cy="185.5" r="1.2" fill="white" opacity="0.33"/><circle cx="595.0" cy="75.4" r="2.3" fill="white" opacity="0.95"/><circle cx="576.1" cy="164.0" r="2.0" fill="white" opacity="0.66"/><circle cx="845.6" cy="118.0" r="1.8" fill="white" opacity="0.85"/><circle cx="45.0" cy="151.9" r="0.9" fill="white" opacity="0.99"/><circle cx="973.3" cy="143.3" r="2.7" fill="white" opacity="0.49"/><circle cx="485.6" cy="345.0" r="2.9" fill="white" opacity="0.50"/><circle cx="781.9" cy="393.2" r="2.1" fill="white" opacity="0.64"/><circle cx="692.2" cy="363.3" r="1.2" fill="white" opacity="0.51"/><circle cx="574.8" cy="282.6" r="2.4" fill="white" opacity="0.84"/><circle cx="427.9" cy="413.4" r="42.6" fill="#7c3aed" opacity="0.202"/><circle cx="765.3" cy="155.1" r="45.6" fill="#7c3aed" opacity="0.041"/><circle cx="706.5" cy="470.3" r="84.8" fill="#7c3aed" opacity="0.216"/><circle cx="270.3" cy="483.8" r="62.2" fill="#7c3aed" opacity="0.198"/><circle cx="810.7" cy="359.9" r="72.4" fill="#7c3aed" opacity="0.144"/><circle cx="856.8" cy="242.8" r="124.4" fill="#7c3aed" opacity="0.090"/>
    <circle cx="820" cy="120" r="60" fill="#7c3aed"/>
    <ellipse cx="820" cy="120" rx="102" ry="21" fill="none" stroke="#3b82f6" stroke-width="4" opacity="0.5"/>
  
    <circle cx="180" cy="430" r="35" fill="#3b82f6"/>
    <ellipse cx="180" cy="430" rx="59.5" ry="12.25" fill="none" stroke="#f59e0b" stroke-width="4" opacity="0.5"/>
  <text x="245" y="169" font-size="15" fill="#f59e0b" opacity="0.22" text-anchor="middle">✦</text><text x="43" y="214" font-size="14" fill="#f59e0b" opacity="0.79" text-anchor="middle">✦</text><text x="457" y="373" font-size="5" fill="#f59e0b" opacity="0.33" text-anchor="middle">✦</text><text x="132" y="267" font-size="7" fill="#f59e0b" opacity="0.94" text-anchor="middle">✦</text><text x="319" y="88" font-size="13" fill="#f59e0b" opacity="0.68" text-anchor="middle">✦</text><text x="780" y="448" font-size="5" fill="#f59e0b" opacity="0.38" text-anchor="middle">✦</text><text x="500" y="48" font-size="13" fill="#f59e0b" opacity="0.28" text-anchor="middle">✦</text><text x="538" y="96" font-size="14" fill="#f59e0b" opacity="0.49" text-anchor="middle">✦</text>
  
  
    <defs>
      <linearGradient id="titleFade" x1="0%" y1="0%" x2="0%" y2="100%">
        <stop offset="0%" stop-color="#000000" stop-opacity="0"/>
        <stop offset="100%" stop-color="#000000" stop-opacity="0.65"/>
      </linearGradient>
    </defs>
    <rect y="430" width="1024" height="146" fill="url(#titleFade)"/>
  
</svg>